Coordinates
version=1
nRows=26
nColumns=27
inDegrees=yes

Units are S.I. units (second, meters, Newtons, ...)
If the header above contains a line with 'inDegrees', this indicates whether rotational values are in degrees (yes) or radians (no).

endheader
time	pelvis_rotation	pelvis_tilt	pelvis_list	pelvis_tx	pelvis_ty	pelvis_tz	hip_flexion_r	hip_adduction_r	hip_rotation_r	knee_angle_r	knee_rotation_r	knee_adduction_r	knee_angle_r_beta	ankle_angle_r	subtalar_angle_r	mtp_angle_r	hip_flexion_l	hip_adduction_l	hip_rotation_l	knee_angle_l	knee_rotation_l	knee_adduction_l	knee_angle_l_beta	ankle_angle_l	subtalar_angle_l	mtp_angle_l
      5.38000000	      6.96268563	    -35.38520347	      4.59957505	     -0.04718482	      0.62988524	     -1.14650238	    102.74931934	    -41.33431166	      5.76121791	     81.55714515	      0.00000000	      9.54483151	      1.42344071	      9.53252922	      0.00000000	      0.00000000	    100.11676004	    -27.44902264	      4.03101280	     74.90039373	      0.00000000	     -9.73384330	      1.30725848	      5.22259999	      0.00000000	      0.00000000
      5.38500000	      7.20854151	    -35.29605757	      4.61202263	     -0.04670717	      0.63206881	     -1.14687065	    102.16396497	    -41.71440451	      5.22155758	     81.17020173	      0.00000000	      9.75489340	      1.41668727	      9.48052725	      0.00000000	      0.00000000	     99.73474496	    -27.17765202	      3.90612666	     74.54634748	      0.00000000	     -9.85723666	      1.30107921	      5.22899736	      0.00000000	      0.00000000
      5.39000000	      7.21366041	    -35.21391075	      4.62535580	     -0.04636340	      0.63425653	     -1.14710181	    101.66818457	    -41.75455573	      4.90241507	     80.76037262	      0.00000000	      9.75419673	      1.40953441	      9.35318501	      0.00000000	      0.00000000	     99.27427515	    -27.14790653	      3.66634456	     74.16129317	      0.00000000	     -9.85644821	      1.29435874	      5.14864162	      0.00000000	      0.00000000
      5.39500000	      7.15170414	    -35.14612643	      4.62232724	     -0.04598063	      0.63637165	     -1.14731426	    101.19836659	    -41.71538203	      4.62005992	     80.36296439	      0.00000000	      9.75348049	      1.40259833	      9.25044151	      0.00000000	      0.00000000	     98.82855867	    -27.19395604	      3.41081530	     73.79823574	      0.00000000	     -9.85597587	      1.28802220	      5.09121194	      0.00000000	      0.00000000
      5.40000000	      7.17099447	    -35.05572440	      4.64935415	     -0.04555041	      0.63846490	     -1.14757708	    100.71333049	    -41.77077208	      4.32311937	     79.96736337	      0.00000000	      9.75478987	      1.39569378	      9.13104985	      0.00000000	      0.00000000	     98.36485615	    -27.15522857	      3.16960679	     73.43103075	      0.00000000	     -9.85549180	      1.28161326	      5.04700015	      0.00000000	      0.00000000
      5.40500000	      7.16360711	    -34.98121362	      4.65563610	     -0.04512200	      0.64051032	     -1.14781487	    100.23447345	    -41.79298048	      4.02316882	     79.58228029	      0.00000000	      9.75453336	      1.38897282	      9.04455594	      0.00000000	      0.00000000	     97.93078038	    -27.14327357	      2.93779195	     73.07326852	      0.00000000	     -9.85478036	      1.27536913	      4.97555367	      0.00000000	      0.00000000
      5.41000000	      7.18020018	    -34.89232711	      4.67435254	     -0.04464599	      0.64251395	     -1.14807534	     99.75220764	    -41.84419478	      3.73056079	     79.20252811	      0.00000000	      9.75515270	      1.38234489	      8.94400783	      0.00000000	      0.00000000	     97.48474088	    -27.10764133	      2.71091277	     72.72249503	      0.00000000	     -9.85432363	      1.26924698	      4.93344907	      0.00000000	      0.00000000
      5.41500000	      7.12962645	    -34.80589176	      4.73108852	     -0.04415951	      0.64449932	     -1.14834379	     99.34767390	    -41.80968265	      3.55582441	     78.83563408	      0.00000000	      9.75447193	      1.37594138	      8.83197136	      0.00000000	      0.00000000	     96.98408806	    -27.14386219	      2.38814216	     72.35700325	      0.00000000	     -9.85397500	      1.26286794	      4.86760309	      0.00000000	      0.00000000
      5.42000000	      7.08009514	    -34.71600179	      4.33922550	     -0.04381053	      0.64642140	     -1.14839890	     98.41740110	    -41.78670923	      2.75060157	     78.37691691	      0.00000000	      9.55034600	      1.36793526	      8.75711180	      0.00000000	      0.00000000	     96.83595062	    -27.08423404	      2.71900891	     72.07106440	      0.00000000	     -9.72413390	      1.25787737	      4.75293411	      0.00000000	      0.00000000
      5.42500000	      7.10236003	    -34.62725181	      4.60756123	     -0.04308821	      0.64830173	     -1.14878751	     98.23231015	    -41.85997344	      2.79105521	     78.07897200	      0.00000000	      9.75699629	      1.36273514	      8.69576389	      0.00000000	      0.00000000	     96.22532902	    -27.13482095	      2.11096806	     71.73076136	      0.00000000	     -9.85336462	      1.25193796	      4.75340413	      0.00000000	      0.00000000
      5.43000000	      7.31546534	    -34.43914540	      4.27638912	     -0.04254322	      0.65029344	     -1.14899665	     97.13735919	    -42.14549404	      1.83748764	     77.60446314	      0.00000000	      9.55915157	      1.35445340	      8.57724791	      0.00000000	      0.00000000	     95.98536101	    -26.78514881	      2.54491569	     71.40273364	      0.00000000	     -9.72207151	      1.24621280	      4.63827417	      0.00000000	      0.00000000
      5.43500000	      7.15949970	    -34.41129448	      4.70929937	     -0.04190155	      0.65202488	     -1.14935432	     97.32574885	    -41.97584064	      2.32773431	     77.37028185	      0.00000000	      9.75940999	      1.35036616	      8.46352910	      0.00000000	      0.00000000	     95.28945197	    -27.05348372	      1.60611993	     71.07065495	      0.00000000	     -9.85293786	      1.24041693	      4.68696247	      0.00000000	      0.00000000
      5.44000000	      7.14396749	    -34.31707565	      4.69951034	     -0.04130703	      0.65385149	     -1.14960003	     96.83836762	    -41.98478300	      2.04422132	     77.01174693	      0.00000000	      9.75908261	      1.34410855	      8.35899013	      0.00000000	      0.00000000	     94.86743366	    -27.05045387	      1.40523924	     70.75113540	      0.00000000	     -9.85283209	      1.23484026	      4.65197069	      0.00000000	      0.00000000
      5.44500000	      6.85242980	    -34.28024727	      4.65591955	     -0.04084220	      0.65564087	     -1.14969974	     96.49714565	    -41.62260858	      2.01307886	     76.64130594	      0.00000000	      9.55314311	      1.33764313	      8.22629903	      0.00000000	      0.00000000	     94.42815266	    -27.30426708	      1.12268002	     70.42703760	      0.00000000	     -9.72476421	      1.22918369	      4.55981994	      0.00000000	      0.00000000
      5.45000000	      7.10058594	    -34.12412969	      4.70369583	     -0.03998788	      0.65741783	     -1.15011290	     95.89304635	    -41.98887500	      1.53477305	     76.31566523	      0.00000000	      9.76139395	      1.33195963	      8.19321526	      0.00000000	      0.00000000	     94.00731250	    -27.05876156	      0.98387122	     70.13750387	      0.00000000	     -9.85263586	      1.22413037	      4.55594822	      0.00000000	      0.00000000
      5.45500000	      7.11030573	    -34.01132180	      4.70150334	     -0.03928326	      0.65921063	     -1.15037948	     95.38024781	    -42.02983609	      1.24075045	     75.96499627	      0.00000000	      9.76231440	      1.32583930	      8.11723210	      0.00000000	      0.00000000	     93.56623153	    -27.02527340	      0.80234237	     69.82450962	      0.00000000	     -9.85264247	      1.21866759	      4.52995822	      0.00000000	      0.00000000
      5.46000000	      7.15193955	    -33.90033008	      4.75296041	     -0.03854931	      0.66095438	     -1.15069332	     94.92849059	    -42.10310365	      1.01385354	     75.62897320	      0.00000000	      9.76343405	      1.31997459	      8.00256182	      0.00000000	      0.00000000	     93.11244516	    -26.96018946	      0.58014276	     69.51937402	      0.00000000	     -9.85200997	      1.21334197	      4.50603736	      0.00000000	      0.00000000
      5.46500000	      7.00852539	    -33.82600582	      4.40300803	     -0.03795766	      0.66277000	     -1.15076264	     94.10619207	    -41.94408041	      0.36210301	     75.18810169	      0.00000000	      9.56167803	      1.31227993	      7.89970337	      0.00000000	      0.00000000	     92.90182838	    -27.01722484	      0.81033127	     69.23546647	      0.00000000	     -9.72157257	      1.20838685	      4.39818155	      0.00000000	      0.00000000
      5.47000000	      7.29092978	    -33.66446021	      4.35311461	     -0.03697891	      0.66450359	     -1.15117849	     93.35197107	    -42.34876216	     -0.31901481	     74.84857439	      0.00000000	      9.76635303	      1.30635406	      7.85135951	      0.00000000	      0.00000000	     92.55568529	    -26.72198079	      0.85038555	     68.97881597	      0.00000000	     -9.85086413	      1.20390745	      4.45685141	      0.00000000	      0.00000000
      5.47500000	      6.83066281	    -33.68699862	      4.70145778	     -0.03649149	      0.66618864	     -1.15135980	     93.65165278	    -41.75539927	      0.48074659	     74.57727004	      0.00000000	      9.56057397	      1.30161891	      7.69837258	      0.00000000	      0.00000000	     91.84119316	    -27.16697124	     -0.05678290	     68.60566088	      0.00000000	     -9.72219856	      1.19739467	      4.38014163	      0.00000000	      0.00000000
      5.48000000	      7.30276069	    -33.44057580	      4.43297304	     -0.03535456	      0.66800598	     -1.15179521	     92.41699552	    -42.40986349	     -0.77197155	     74.16687330	      0.00000000	      9.76792774	      1.29445614	      7.68129958	      0.00000000	      0.00000000	     91.62441824	    -26.65114287	      0.40682198	     68.36339884	      0.00000000	     -9.85008909	      1.19316640	      4.39962056	      0.00000000	      0.00000000
      5.48500000	      7.03985796	    -33.40906777	      4.75076651	     -0.03463656	      0.66965473	     -1.15209139	     92.53343946	    -42.11131746	     -0.26480559	     73.90980958	      0.00000000	      9.76579704	      1.28996953	      7.57588466	      0.00000000	      0.00000000	     90.95327846	    -26.91134922	     -0.36893442	     68.02726722	      0.00000000	     -9.85069405	      1.18729979	      4.37794859	      0.00000000	      0.00000000
      5.49000000	      6.78254923	    -33.38176298	      4.74863652	     -0.03401010	      0.67137244	     -1.15225380	     92.24970262	    -41.78530200	     -0.22613871	     73.55316957	      0.00000000	      9.56234087	      1.28374498	      7.44112997	      0.00000000	      0.00000000	     90.50206029	    -27.09452729	     -0.64887135	     67.70895350	      0.00000000	     -9.72014259	      1.18174417	      4.32840752	      0.00000000	      0.00000000
      5.49500000	      6.99968455	    -33.21260815	      4.76117580	     -0.03293909	      0.67308939	     -1.15269898	     91.57790916	    -42.12037645	     -0.76868526	     73.21817280	      0.00000000	      9.76649635	      1.27789819	      7.40760091	      0.00000000	      0.00000000	     90.07732802	    -26.85716128	     -0.72345206	     67.43321447	      0.00000000	     -9.85000501	      1.17693162	      4.35105607	      0.00000000	      0.00000000
      5.50000000	      7.03605669	    -33.06228819	      4.42490822	     -0.03201536	      0.67479502	     -1.15289820	     90.61521974	    -42.21016561	     -1.63536605	     72.82331095	      0.00000000	      9.76825934	      1.27100655	      7.34574725	      0.00000000	      0.00000000	     89.86947493	    -26.77196332	     -0.41796055	     67.20872419	      0.00000000	     -9.84939538	      1.17301352	      4.29587886	      0.00000000	      0.00000000
      5.50500000	      6.88365764	    -33.01983055	      4.74889400	     -0.03121213	      0.67645408	     -1.15324676	     90.65214243	    -42.04680879	     -1.22816599	     72.54261652	      0.00000000	      9.76626533	      1.26610751	      7.24770108	      0.00000000	      0.00000000	     89.20222235	    -26.88070143	     -1.10088251	     66.85484335	      0.00000000	     -9.84910652	      1.16683714	      4.33000519	      0.00000000	      0.00000000
